<svg width="65" height="14" viewBox="0 0 65 14" fill="none" xmlns="http://www.w3.org/2000/svg">
<path d="M2.572 2.248C2.308 2.248 2.092 2.176 1.924 2.032C1.764 1.888 1.684 1.7 1.684 1.468C1.684 1.236 1.764 1.044 1.924 0.891999C2.092 0.739999 2.308 0.663999 2.572 0.663999C2.836 0.663999 3.048 0.739999 3.208 0.891999C3.368 1.044 3.448 1.236 3.448 1.468C3.448 1.7 3.368 1.888 3.208 2.032C3.048 2.176 2.836 2.248 2.572 2.248ZM0.652 11.944H1.12C1.384 11.944 1.576 11.884 1.696 11.764C1.824 11.652 1.888 11.456 1.888 11.176V3.388H3.268V11.188C3.268 12.492 2.612 13.144 1.3 13.144H0.652V11.944ZM7.91031 3.304C8.51031 3.304 9.02231 3.452 9.44631 3.748C9.87031 4.044 10.1703 4.436 10.3463 4.924V3.388H11.7143V10H10.3463V8.464C10.1703 8.952 9.87031 9.344 9.44631 9.64C9.02231 9.936 8.51031 10.084 7.91031 10.084C7.33431 10.084 6.81831 9.948 6.36231 9.676C5.91431 9.404 5.56231 9.012 5.30631 8.5C5.05031 7.988 4.92231 7.384 4.92231 6.688C4.92231 6 5.05031 5.4 5.30631 4.888C5.56231 4.376 5.91431 3.984 6.36231 3.712C6.81831 3.44 7.33431 3.304 7.91031 3.304ZM8.33031 4.504C7.72231 4.504 7.23431 4.7 6.86631 5.092C6.50631 5.476 6.32631 6.008 6.32631 6.688C6.32631 7.368 6.50631 7.904 6.86631 8.296C7.23431 8.68 7.72231 8.872 8.33031 8.872C8.71431 8.872 9.05831 8.784 9.36231 8.608C9.66631 8.424 9.90631 8.168 10.0823 7.84C10.2583 7.512 10.3463 7.128 10.3463 6.688C10.3463 6.256 10.2583 5.876 10.0823 5.548C9.90631 5.212 9.66631 4.956 9.36231 4.78C9.05831 4.596 8.71431 4.504 8.33031 4.504ZM16.428 8.584L18.3 3.388H19.764L17.244 10H15.588L13.068 3.388H14.532L16.428 8.584ZM23.7827 3.304C24.3827 3.304 24.8947 3.452 25.3187 3.748C25.7427 4.044 26.0427 4.436 26.2187 4.924V3.388H27.5867V10H26.2187V8.464C26.0427 8.952 25.7427 9.344 25.3187 9.64C24.8947 9.936 24.3827 10.084 23.7827 10.084C23.2067 10.084 22.6907 9.948 22.2347 9.676C21.7867 9.404 21.4347 9.012 21.1787 8.5C20.9227 7.988 20.7947 7.384 20.7947 6.688C20.7947 6 20.9227 5.4 21.1787 4.888C21.4347 4.376 21.7867 3.984 22.2347 3.712C22.6907 3.44 23.2067 3.304 23.7827 3.304ZM24.2027 4.504C23.5947 4.504 23.1067 4.7 22.7387 5.092C22.3787 5.476 22.1987 6.008 22.1987 6.688C22.1987 7.368 22.3787 7.904 22.7387 8.296C23.1067 8.68 23.5947 8.872 24.2027 8.872C24.5867 8.872 24.9307 8.784 25.2347 8.608C25.5387 8.424 25.7787 8.168 25.9547 7.84C26.1307 7.512 26.2187 7.128 26.2187 6.688C26.2187 6.256 26.1307 5.876 25.9547 5.548C25.7787 5.212 25.5387 4.956 25.2347 4.78C24.9307 4.596 24.5867 4.504 24.2027 4.504ZM35.1563 7.744C35.1563 8.16 35.0563 8.548 34.8563 8.908C34.6563 9.26 34.3523 9.544 33.9443 9.76C33.5363 9.976 33.0363 10.084 32.4443 10.084C31.8683 10.084 31.3523 9.984 30.8963 9.784C30.4403 9.576 30.0763 9.288 29.8043 8.92C29.5323 8.552 29.3763 8.128 29.3363 7.648H30.8003C30.8403 8.016 30.9963 8.332 31.2683 8.596C31.5483 8.86 31.9203 8.992 32.3843 8.992C32.8003 8.992 33.1203 8.88 33.3443 8.656C33.5763 8.432 33.6923 8.144 33.6923 7.792C33.6923 7.488 33.6083 7.24 33.4403 7.048C33.2723 6.848 33.0643 6.692 32.8163 6.58C32.5683 6.468 32.2283 6.34 31.7963 6.196C31.2683 6.028 30.8363 5.86 30.5003 5.692C30.1723 5.524 29.8923 5.28 29.6603 4.96C29.4283 4.64 29.3123 4.22 29.3123 3.7C29.3123 3.244 29.4243 2.844 29.6483 2.5C29.8723 2.156 30.1923 1.892 30.6083 1.708C31.0243 1.516 31.5043 1.42 32.0483 1.42C32.9123 1.42 33.5963 1.628 34.1003 2.044C34.6123 2.46 34.9043 3.004 34.9763 3.676H33.5003C33.4443 3.356 33.2923 3.084 33.0443 2.86C32.8043 2.628 32.4723 2.512 32.0483 2.512C31.6643 2.512 31.3563 2.612 31.1243 2.812C30.8923 3.004 30.7763 3.284 30.7763 3.652C30.7763 3.94 30.8563 4.18 31.0163 4.372C31.1763 4.556 31.3763 4.704 31.6163 4.816C31.8643 4.92 32.2003 5.044 32.6243 5.188C33.1603 5.356 33.5963 5.528 33.9323 5.704C34.2763 5.872 34.5643 6.12 34.7963 6.448C35.0363 6.776 35.1563 7.208 35.1563 7.744ZM39.8258 3.304C40.6818 3.304 41.3898 3.532 41.9498 3.988C42.5098 4.436 42.8578 5.048 42.9938 5.824H41.5418C41.4618 5.408 41.2658 5.084 40.9538 4.852C40.6498 4.612 40.2658 4.492 39.8018 4.492C39.2738 4.492 38.8338 4.68 38.4818 5.056C38.1298 5.424 37.9538 5.968 37.9538 6.688C37.9538 7.408 38.1298 7.956 38.4818 8.332C38.8338 8.708 39.2738 8.896 39.8018 8.896C40.2658 8.896 40.6498 8.776 40.9538 8.536C41.2658 8.296 41.4618 7.968 41.5418 7.552H42.9938C42.8578 8.328 42.5098 8.944 41.9498 9.4C41.3898 9.856 40.6818 10.084 39.8258 10.084C39.1858 10.084 38.6178 9.948 38.1218 9.676C37.6338 9.404 37.2498 9.012 36.9698 8.5C36.6898 7.988 36.5498 7.384 36.5498 6.688C36.5498 6 36.6898 5.4 36.9698 4.888C37.2498 4.376 37.6338 3.984 38.1218 3.712C38.6178 3.44 39.1858 3.304 39.8258 3.304ZM46.0435 4.684C46.2675 4.252 46.5875 3.912 47.0035 3.664C47.4195 3.408 47.8995 3.28 48.4435 3.28V4.768H48.0355C47.4355 4.768 46.9515 4.916 46.5835 5.212C46.2235 5.5 46.0435 5.98 46.0435 6.652V10H44.6755V3.388H46.0435V4.684ZM49.6365 1.468C49.6365 1.236 49.7165 1.044 49.8765 0.891999C50.0365 0.739999 50.2485 0.663999 50.5125 0.663999C50.7765 0.663999 50.9885 0.739999 51.1485 0.891999C51.3165 1.044 51.4005 1.236 51.4005 1.468C51.4005 1.7 51.3165 1.888 51.1485 2.032C50.9885 2.176 50.7765 2.248 50.5125 2.248C50.2485 2.248 50.0365 2.176 49.8765 2.032C49.7165 1.888 49.6365 1.7 49.6365 1.468ZM51.1965 3.388V10H49.8285V3.388H51.1965ZM57.0039 3.304C57.5799 3.304 58.0919 3.44 58.5399 3.712C58.9959 3.984 59.3519 4.376 59.6079 4.888C59.8639 5.4 59.9919 6 59.9919 6.688C59.9919 7.384 59.8639 7.988 59.6079 8.5C59.3519 9.012 58.9959 9.404 58.5399 9.676C58.0919 9.948 57.5799 10.084 57.0039 10.084C56.4039 10.084 55.8919 9.936 55.4679 9.64C55.0439 9.344 54.7479 8.952 54.5799 8.464V13.144H53.2119V3.388H54.5799V4.924C54.7479 4.436 55.0439 4.044 55.4679 3.748C55.8919 3.452 56.4039 3.304 57.0039 3.304ZM56.5839 4.504C56.1999 4.504 55.8559 4.596 55.5519 4.78C55.2479 4.956 55.0079 5.212 54.8319 5.548C54.6559 5.876 54.5679 6.256 54.5679 6.688C54.5679 7.128 54.6559 7.512 54.8319 7.84C55.0079 8.168 55.2479 8.424 55.5519 8.608C55.8559 8.784 56.1999 8.872 56.5839 8.872C57.1919 8.872 57.6799 8.68 58.0479 8.296C58.4159 7.904 58.5999 7.368 58.5999 6.688C58.5999 6.016 58.4159 5.484 58.0479 5.092C57.6799 4.7 57.1919 4.504 56.5839 4.504ZM64.9936 8.812V10H64.1536C63.4496 10 62.9136 9.832 62.5456 9.496C62.1856 9.152 62.0056 8.584 62.0056 7.792V4.552H61.0576V3.388H62.0056V1.744H63.3856V3.388H64.9816V4.552H63.3856V7.816C63.3856 8.192 63.4536 8.452 63.5896 8.596C63.7336 8.74 63.9816 8.812 64.3336 8.812H64.9936Z" fill="#6070FF"/>
</svg>
