<svg width="123" height="16" viewBox="0 0 123 16" fill="none" xmlns="http://www.w3.org/2000/svg">
<path d="M8.72 1.02673V2.86673H2.66V7.24673H7.66V9.00673H2.66V15.1467H0.38V1.02673H8.72ZM13.0311 6.28673C13.4044 5.56673 13.9378 5.00006 14.6311 4.58673C15.3244 4.16006 16.1244 3.94673 17.0311 3.94673V6.42673H16.3511C15.3511 6.42673 14.5444 6.67339 13.9311 7.16673C13.3311 7.64673 13.0311 8.44673 13.0311 9.56673V15.1467H10.7511V4.12673H13.0311V6.28673ZM23.1594 3.98673C24.1594 3.98673 25.0127 4.23339 25.7194 4.72673C26.426 5.22006 26.926 5.87339 27.2194 6.68673V4.12673H29.4994V15.1467H27.2194V12.5867C26.926 13.4001 26.426 14.0534 25.7194 14.5467C25.0127 15.0401 24.1594 15.2867 23.1594 15.2867C22.1994 15.2867 21.3394 15.0601 20.5794 14.6067C19.8327 14.1534 19.246 13.5001 18.8194 12.6467C18.3927 11.7934 18.1794 10.7867 18.1794 9.62673C18.1794 8.48006 18.3927 7.48006 18.8194 6.62673C19.246 5.77339 19.8327 5.12006 20.5794 4.66673C21.3394 4.21339 22.1994 3.98673 23.1594 3.98673ZM23.8594 5.98673C22.846 5.98673 22.0327 6.31339 21.4194 6.96673C20.8194 7.60673 20.5194 8.49339 20.5194 9.62673C20.5194 10.7601 20.8194 11.6534 21.4194 12.3067C22.0327 12.9467 22.846 13.2667 23.8594 13.2667C24.4994 13.2667 25.0727 13.1201 25.5794 12.8267C26.086 12.5201 26.486 12.0934 26.7794 11.5467C27.0727 11.0001 27.2194 10.3601 27.2194 9.62673C27.2194 8.90673 27.0727 8.27339 26.7794 7.72673C26.486 7.16673 26.086 6.74006 25.5794 6.44673C25.0727 6.14006 24.4994 5.98673 23.8594 5.98673ZM46.0155 3.94673C47.3221 3.94673 48.3621 4.36006 49.1355 5.18673C49.9221 6.01339 50.3155 7.19339 50.3155 8.72673V15.1467H48.0355V8.96673C48.0355 8.00673 47.7955 7.26673 47.3155 6.74673C46.8355 6.21339 46.1755 5.94673 45.3355 5.94673C44.4421 5.94673 43.7288 6.23339 43.1955 6.80673C42.6755 7.36673 42.4155 8.19339 42.4155 9.28673V15.1467H40.1355V8.96673C40.1355 8.00673 39.8955 7.26673 39.4155 6.74673C38.9355 6.21339 38.2755 5.94673 37.4355 5.94673C36.5421 5.94673 35.8288 6.23339 35.2955 6.80673C34.7755 7.36673 34.5155 8.19339 34.5155 9.28673V15.1467H32.2355V4.12673H34.5155V6.42673C34.7955 5.62673 35.2621 5.01339 35.9155 4.58673C36.5688 4.16006 37.3355 3.94673 38.2155 3.94673C39.1355 3.94673 39.9288 4.17339 40.5955 4.62673C41.2755 5.08006 41.7688 5.73339 42.0755 6.58673C42.3955 5.76006 42.9088 5.11339 43.6155 4.64673C44.3221 4.18006 45.1221 3.94673 46.0155 3.94673ZM63.2177 9.10673C63.2177 9.48006 63.191 9.80673 63.1377 10.0867H54.6577C54.6977 11.2201 55.011 12.0601 55.5977 12.6067C56.1843 13.1534 56.911 13.4267 57.7777 13.4267C58.5377 13.4267 59.1777 13.2334 59.6977 12.8467C60.231 12.4601 60.5577 11.9467 60.6777 11.3067H63.1177C62.971 12.0801 62.6643 12.7667 62.1977 13.3667C61.731 13.9667 61.1243 14.4401 60.3777 14.7867C59.631 15.1201 58.7977 15.2867 57.8777 15.2867C56.811 15.2867 55.8643 15.0601 55.0377 14.6067C54.2243 14.1534 53.5843 13.5001 53.1177 12.6467C52.651 11.7934 52.4177 10.7867 52.4177 9.62673C52.4177 8.48006 52.651 7.48006 53.1177 6.62673C53.5843 5.77339 54.2243 5.12006 55.0377 4.66673C55.8643 4.21339 56.811 3.98673 57.8777 3.98673C58.9577 3.98673 59.8977 4.21339 60.6977 4.66673C61.511 5.10673 62.131 5.72006 62.5577 6.50673C62.9977 7.28006 63.2177 8.14673 63.2177 9.10673ZM60.9177 9.04673C60.9443 8.32673 60.8177 7.72673 60.5377 7.24673C60.271 6.75339 59.8977 6.39339 59.4177 6.16673C58.951 5.92673 58.4377 5.80673 57.8777 5.80673C56.9843 5.80673 56.2377 6.08006 55.6377 6.62673C55.0377 7.17339 54.711 7.98006 54.6577 9.04673H60.9177ZM80.8591 4.12673L77.7991 15.1467H75.2791L72.5591 6.62673L69.7991 15.1467H67.2991L64.2391 4.12673H66.5391L68.6391 13.0467L71.3991 4.12673H73.7991L76.5991 13.0467L78.6991 4.12673H80.8591ZM87.4513 3.98673C88.5179 3.98673 89.4779 4.21339 90.3313 4.66673C91.1846 5.12006 91.8513 5.77339 92.3312 6.62673C92.8113 7.48006 93.0513 8.48006 93.0513 9.62673C93.0513 10.7867 92.8113 11.7934 92.3312 12.6467C91.8513 13.5001 91.1846 14.1534 90.3313 14.6067C89.4779 15.0601 88.5179 15.2867 87.4513 15.2867C86.3846 15.2867 85.4246 15.0601 84.5713 14.6067C83.7313 14.1534 83.0646 13.5001 82.5713 12.6467C82.0913 11.7801 81.8513 10.7734 81.8513 9.62673C81.8513 8.48006 82.0913 7.48006 82.5713 6.62673C83.0646 5.77339 83.7313 5.12006 84.5713 4.66673C85.4246 4.21339 86.3846 3.98673 87.4513 3.98673ZM87.4513 5.96673C86.8646 5.96673 86.3246 6.10006 85.8313 6.36673C85.3379 6.63339 84.9379 7.04673 84.6313 7.60673C84.3379 8.15339 84.1913 8.82673 84.1913 9.62673C84.1913 10.4401 84.3379 11.1201 84.6313 11.6667C84.9379 12.2134 85.3379 12.6201 85.8313 12.8867C86.3246 13.1534 86.8646 13.2867 87.4513 13.2867C88.0379 13.2867 88.5779 13.1534 89.0713 12.8867C89.5646 12.6201 89.9579 12.2134 90.2513 11.6667C90.5579 11.1201 90.7113 10.4401 90.7113 9.62673C90.7113 8.82673 90.5579 8.15339 90.2513 7.60673C89.9579 7.04673 89.5646 6.63339 89.0713 6.36673C88.5779 6.10006 88.0379 5.96673 87.4513 5.96673ZM97.5233 6.28673C97.8966 5.56673 98.4299 5.00006 99.1233 4.58673C99.8166 4.16006 100.617 3.94673 101.523 3.94673V6.42673H100.843C99.8433 6.42673 99.0366 6.67339 98.4233 7.16673C97.8233 7.64673 97.5233 8.44673 97.5233 9.56673V15.1467H95.2433V4.12673H97.5233V6.28673ZM109.472 15.1467L105.512 10.2467V15.1467H103.232V0.346728H105.512V8.82673L109.432 4.12673H112.172L107.372 9.60673L112.292 15.1467H109.472ZM117.398 3.98673C118.692 3.98673 119.725 4.32006 120.498 4.98673C121.285 5.64006 121.765 6.52006 121.938 7.62673H119.778C119.685 7.02673 119.425 6.54673 118.998 6.18673C118.585 5.81339 118.032 5.62673 117.338 5.62673C116.765 5.62673 116.318 5.76673 115.998 6.04673C115.692 6.31339 115.538 6.68006 115.538 7.14673C115.538 7.49339 115.652 7.77339 115.878 7.98673C116.105 8.20006 116.385 8.36673 116.718 8.48673C117.065 8.60673 117.552 8.74006 118.178 8.88673C119.005 9.07339 119.672 9.26673 120.178 9.46673C120.698 9.66673 121.138 9.98673 121.498 10.4267C121.872 10.8534 122.058 11.4401 122.058 12.1867C122.058 13.1067 121.705 13.8534 120.998 14.4267C120.305 15.0001 119.365 15.2867 118.178 15.2867C116.805 15.2867 115.692 14.9667 114.838 14.3267C113.998 13.6867 113.492 12.7934 113.318 11.6467H115.538C115.605 12.2467 115.872 12.7334 116.338 13.1067C116.805 13.4801 117.418 13.6667 118.178 13.6667C118.725 13.6667 119.152 13.5267 119.458 13.2467C119.778 12.9534 119.938 12.5867 119.938 12.1467C119.938 11.7601 119.818 11.4534 119.578 11.2267C119.338 11.0001 119.038 10.8267 118.678 10.7067C118.318 10.5734 117.825 10.4401 117.198 10.3067C116.398 10.1201 115.745 9.93339 115.238 9.74673C114.745 9.56006 114.318 9.26006 113.958 8.84673C113.612 8.42006 113.438 7.84673 113.438 7.12673C113.438 6.19339 113.785 5.44006 114.478 4.86673C115.185 4.28006 116.158 3.98673 117.398 3.98673Z" fill="black"/>
</svg>
